<svg id="Layer_1" data-name="Layer 1" xmlns="http://www.w3.org/2000/svg" viewBox="0 0 110 80"><defs><style>.cls-1,.cls-3{fill:none;}.cls-2{fill:#fffffa;}.cls-3{stroke:#fffffa;stroke-miterlimit:10;stroke-width:3px;}</style></defs><title>logo</title><rect class="cls-1" x="-916.8" y="-590.58" width="2083.45" height="2005.75"/><path class="cls-2" d="M31.12,17.55l28.07,41L73.76,38.06H63.5V28.88H85.95a2.93,2.93,0,0,1,2.4,4.61L63.75,68.76a5.56,5.56,0,0,1-9.12,0L19.78,18.63Z"/><path class="cls-3" d="M44.61,9.45l-.27,6.75L28.69,14l30.5,44.53L73.76,38.06H63.5V28.88H86.7a2.54,2.54,0,0,1,2.08,4L63.5,69.11a5.26,5.26,0,0,1-8.63,0L19.78,18.63Z"/><path class="cls-2" d="M63.5,13.29v5.33H99.12l7-9.72H67.88A4.38,4.38,0,0,0,63.5,13.29Z"/><path class="cls-3" d="M63.5,12.53v6.1H99.12l7-9.72h-39A3.62,3.62,0,0,0,63.5,12.53Z"/><path class="cls-2" d="M50.28,8.64v2.13a7.59,7.59,0,0,1-7.59,7.59H11.5L3.86,8.64Z"/><path class="cls-3" d="M50.28,8.64v3a6.75,6.75,0,0,1-6.75,6.75h-32L3.86,8.64Z"/></svg>